<?xml version="1.0" encoding="UTF-8" standalone="no"?>
<!-- Created with Inkscape (http://www.inkscape.org/) -->

<svg
   xmlns:dc="http://purl.org/dc/elements/1.1/"
   xmlns:cc="http://creativecommons.org/ns#"
   xmlns:rdf="http://www.w3.org/1999/02/22-rdf-syntax-ns#"
   xmlns:svg="http://www.w3.org/2000/svg"
   xmlns="http://www.w3.org/2000/svg"
   xmlns:sodipodi="http://sodipodi.sourceforge.net/DTD/sodipodi-0.dtd"
   xmlns:inkscape="http://www.inkscape.org/namespaces/inkscape"
   width="210mm"
   height="297mm"
   viewBox="0 0 744.09448819 1052.3622047"
   id="svg2"
   version="1.1"
   inkscape:version="0.91 r13725"
   sodipodi:docname="drawing.svg">
  <defs
     id="defs4" />
  <sodipodi:namedview
     id="base"
     pagecolor="#ffffff"
     bordercolor="#666666"
     borderopacity="1.0"
     inkscape:pageopacity="0.0"
     inkscape:pageshadow="2"
     inkscape:zoom="0.30372487"
     inkscape:cx="-664.98891"
     inkscape:cy="870.74566"
     inkscape:document-units="px"
     inkscape:current-layer="layer1"
     showgrid="false"
     inkscape:window-width="1366"
     inkscape:window-height="712"
     inkscape:window-x="0"
     inkscape:window-y="30"
     inkscape:window-maximized="1" />
  <metadata
     id="metadata7">
    <rdf:RDF>
      <cc:Work
         rdf:about="">
        <dc:format>image/svg+xml</dc:format>
        <dc:type
           rdf:resource="http://purl.org/dc/dcmitype/StillImage" />
        <dc:title></dc:title>
      </cc:Work>
    </rdf:RDF>
  </metadata>
  <g
     inkscape:label="Layer 1"
     inkscape:groupmode="layer"
     id="layer1">
    <g
       id="g4139"
       transform="matrix(0.74663907,0,0,0.74663907,-689.83642,228.11756)"
       inkscape:export-xdpi="90"
       inkscape:export-ydpi="90">
      <path
         id="path4141"
         d="m 17,55.231 48.733,0 69.417,251.033 c 1.983,7.367 8.783,12.467 16.433,12.467 l 213.35,0 c 6.8,0 12.75,-3.967 15.583,-10.2 l 77.633,-178.5 c 2.267,-5.383 1.7,-11.333 -1.417,-16.15 -3.117,-4.817 -8.5,-7.65 -14.167,-7.65 l -235.732,0 c -9.35,0 -17,7.65 -17,17 0,9.35 7.65,17 17,17 l 209.667,0 -62.9,144.5 -189.267,0 L 94.917,33.698 C 92.934,26.331 86.134,21.231 78.484,21.231 l -61.484,0 c -9.35,0 -17,7.65 -17,17 0,9.35 7.65,17 17,17 z"
         inkscape:connector-curvature="0" />
      <path
         id="path4143"
         d="m 135.433,438.298 c 21.25,0 38.533,-17.283 38.533,-38.533 0,-21.25 -17.283,-38.533 -38.533,-38.533 -21.25,0 -38.533,17.282 -38.533,38.532 0,21.25 17.283,38.534 38.533,38.534 z"
         inkscape:connector-curvature="0" />
      <path
         id="path4145"
         d="m 376.267,438.298 c 0.85,0 1.983,0 2.833,0 10.2,-0.85 19.55,-5.383 26.35,-13.317 6.8,-7.65 9.917,-17.567 9.35,-28.05 -1.417,-20.967 -19.833,-37.117 -41.083,-35.7 -21.25,1.417 -37.117,20.117 -35.7,41.083 1.416,20.117 18.133,35.984 38.25,35.984 z"
         inkscape:connector-curvature="0" />
    </g>
    <text
       xml:space="preserve"
       style="font-style:normal;font-variant:normal;font-weight:bold;font-stretch:normal;font-size:388.24905396px;line-height:125%;font-family:Sawasdee;-inkscape-font-specification:'Sawasdee Bold';letter-spacing:0px;word-spacing:0px;fill:#000000;fill-opacity:1;stroke:none;stroke-width:1px;stroke-linecap:butt;stroke-linejoin:miter;stroke-opacity:1"
       x="-1338.9988"
       y="552.1452"
       id="text4229"
       sodipodi:linespacing="125%"
       inkscape:export-xdpi="90"
       inkscape:export-ydpi="90"><tspan
         sodipodi:role="line"
         id="tspan4231"
         x="-1338.9988"
         y="552.1452"
         style="font-style:normal;font-variant:normal;font-weight:bold;font-stretch:normal;font-family:Sawasdee;-inkscape-font-specification:'Sawasdee Bold'">Flat </tspan></text>
    <flowRoot
       xml:space="preserve"
       id="flowRoot4233"
       style="fill:black;stroke:none;stroke-opacity:1;stroke-width:1px;stroke-linejoin:miter;stroke-linecap:butt;fill-opacity:1;font-family:sans-serif;font-style:normal;font-weight:normal;font-size:20px;line-height:125%;letter-spacing:0px;word-spacing:0px"><flowRegion
         id="flowRegion4235"><rect
           id="rect4237"
           width="348.57144"
           height="48.57143"
           x="22.857143"
           y="398.07648" /></flowRegion><flowPara
         id="flowPara4239"></flowPara></flowRoot>    <text
       sodipodi:linespacing="125%"
       id="text4241"
       y="552.1452"
       x="-338.99878"
       style="font-style:normal;font-variant:normal;font-weight:bold;font-stretch:normal;font-size:388.24905396px;line-height:125%;font-family:Sawasdee;-inkscape-font-specification:'Sawasdee Bold';letter-spacing:0px;word-spacing:0px;fill:#000000;fill-opacity:1;stroke:none;stroke-width:1px;stroke-linecap:butt;stroke-linejoin:miter;stroke-opacity:1"
       xml:space="preserve"
       inkscape:export-xdpi="90"
       inkscape:export-ydpi="90"><tspan
         style="font-style:normal;font-variant:normal;font-weight:bold;font-stretch:normal;font-family:Sawasdee;-inkscape-font-specification:'Sawasdee Bold'"
         y="552.1452"
         x="-338.99878"
         id="tspan4243"
         sodipodi:role="line">Store</tspan></text>
  </g>
</svg>
